<?xml version="1.0" standalone="no"?>
<!DOCTYPE svg PUBLIC "-//W3C//DTD SVG 20010904//EN"
 "http://www.w3.org/TR/2001/REC-SVG-20010904/DTD/svg10.dtd">
<svg version="1.0" xmlns="http://www.w3.org/2000/svg"
 width="50.000000pt" height="50.000000pt" viewBox="0 0 50.000000 50.000000"
 preserveAspectRatio="xMidYMid meet">

<g transform="translate(0.000000,50.000000) scale(0.100000,-0.100000)"
fill="#000000" stroke="none">
<path d="M200 401 c-19 -4 -53 -17 -75 -28 -42 -22 -125 -104 -125 -123 0 -22
93 -109 138 -131 64 -30 160 -30 224 0 46 22 138 109 138 131 0 21 -91 108
-133 128 -50 23 -119 33 -167 23z m150 -51 c54 -28 110 -78 110 -100 0 -22
-56 -72 -110 -100 -54 -28 -147 -27 -203 1 -51 26 -107 77 -107 99 0 21 55 73
105 98 55 29 151 29 205 2z"/>
<path d="M185 315 c-35 -34 -35 -96 0 -130 18 -19 35 -25 65 -25 56 0 90 34
90 90 0 56 -34 90 -90 90 -30 0 -47 -6 -65 -25z m107 -22 c22 -20 23 -61 1
-85 -34 -38 -103 -11 -103 40 0 54 62 81 102 45z"/>
</g>
</svg>
