<?xml version="1.0" standalone="no"?>
<!DOCTYPE svg PUBLIC "-//W3C//DTD SVG 20010904//EN"
 "http://www.w3.org/TR/2001/REC-SVG-20010904/DTD/svg10.dtd">
<svg version="1.0" xmlns="http://www.w3.org/2000/svg"
 width="50.000000pt" height="50.000000pt" viewBox="0 0 50.000000 50.000000"
 preserveAspectRatio="xMidYMid meet">

<g transform="translate(0.000000,50.000000) scale(0.100000,-0.100000)"
fill="#000000" stroke="none">
<path d="M386 411 c-25 -26 -32 -28 -50 -19 -11 6 -50 11 -86 11 -50 0 -77 -6
-115 -26 -50 -25 -135 -106 -135 -128 0 -7 24 -36 53 -65 l53 -53 -25 -25
c-20 -20 -23 -28 -13 -38 10 -10 50 25 192 167 99 99 179 184 177 189 -7 20
-24 15 -51 -13z m-63 -48 c17 -16 -16 -30 -62 -25 -44 4 -53 1 -76 -23 -24
-23 -27 -32 -23 -76 4 -38 1 -52 -13 -65 -20 -18 -25 -16 -82 35 -35 32 -34
50 6 88 54 52 104 72 178 73 36 0 69 -3 72 -7z m-83 -99 c-45 -45 -45 -45 -48
-19 -5 36 23 65 62 65 l30 0 -44 -46z"/>
<path d="M405 341 c-4 -8 5 -25 24 -45 40 -41 39 -57 -4 -95 -58 -51 -108 -71
-174 -71 -54 0 -83 -12 -67 -28 16 -15 133 -4 178 18 46 21 138 108 138 130 0
6 -20 32 -43 57 -31 32 -46 42 -52 34z"/>
<path d="M323 258 c-4 -7 -13 -22 -18 -33 -6 -11 -21 -25 -34 -31 -43 -22 -48
-34 -13 -34 43 0 82 38 82 80 0 32 -4 37 -17 18z"/>
</g>
</svg>
