<?xml version="1.0" standalone="no"?>
<!DOCTYPE svg PUBLIC "-//W3C//DTD SVG 20010904//EN"
 "http://www.w3.org/TR/2001/REC-SVG-20010904/DTD/svg10.dtd">
<svg version="1.0" xmlns="http://www.w3.org/2000/svg"
 width="55.000000pt" height="55.000000pt" viewBox="0 0 55.000000 55.000000"
 preserveAspectRatio="xMidYMid meet">

<g transform="translate(0.000000,55.000000) scale(0.100000,-0.100000)"
fill="#000000" stroke="none">
<path d="M16 534 c-14 -13 -16 -51 -16 -264 0 -236 1 -250 19 -260 26 -13 411
-14 411 0 0 6 -79 11 -202 12 l-203 3 0 250 0 250 250 0 250 0 0 -250 0 -250
-30 -3 c-49 -6 -54 -22 -7 -22 31 0 44 5 52 19 6 12 10 115 10 265 0 232 -1
246 -19 256 -12 6 -113 10 -260 10 -204 0 -242 -2 -255 -16z"/>
<path d="M213 479 c-18 -5 -33 -14 -33 -20 0 -6 7 -6 19 1 47 24 168 5 198
-32 11 -12 9 -18 -7 -33 -19 -18 -22 -18 -56 -2 -58 28 -115 18 -165 -29 l-26
-25 -24 20 -24 20 34 35 c19 20 30 36 25 36 -15 0 -59 -50 -78 -87 -10 -20
-16 -57 -16 -96 0 -56 4 -71 33 -113 43 -64 101 -94 179 -94 121 0 209 85 212
205 1 47 0 50 -26 53 -16 2 -28 -1 -28 -7 0 -6 9 -11 20 -11 17 0 20 -7 20
-41 0 -40 -23 -104 -41 -115 -5 -3 -20 3 -33 13 -21 17 -22 21 -10 38 27 36
18 45 -46 45 l-60 0 0 30 0 30 65 0 c38 0 65 4 65 10 0 7 -27 10 -72 8 l-73
-3 -3 -42 -3 -43 60 0 c71 0 79 -13 30 -54 -34 -29 -102 -36 -142 -14 -20 10
-21 10 -8 -5 21 -26 76 -32 127 -12 43 16 46 16 64 0 24 -22 18 -32 -34 -56
-81 -37 -184 -15 -239 51 l-28 33 28 18 c25 17 29 17 39 4 18 -24 27 -17 10 7
-9 13 -16 43 -16 69 0 59 34 103 90 120 34 10 44 9 82 -10 l43 -21 30 31 30
30 -29 24 c-29 23 -97 46 -133 44 -10 0 -33 -5 -50 -10z m-78 -204 c-2 -45 -6
-59 -24 -71 -12 -9 -25 -13 -28 -10 -12 12 -15 111 -4 139 10 26 12 27 34 12
20 -13 23 -22 22 -70z"/>
</g>
</svg>
