<?xml version="1.0" standalone="no"?>
<!DOCTYPE svg PUBLIC "-//W3C//DTD SVG 20010904//EN"
 "http://www.w3.org/TR/2001/REC-SVG-20010904/DTD/svg10.dtd">
<svg version="1.0" xmlns="http://www.w3.org/2000/svg"
 width="55.000000pt" height="55.000000pt" viewBox="0 0 55.000000 55.000000"
 preserveAspectRatio="xMidYMid meet">

<g transform="translate(0.000000,55.000000) scale(0.100000,-0.100000)"
fill="#000000" stroke="none">
<path d="M16 534 c-14 -13 -16 -51 -16 -264 0 -236 1 -250 19 -260 12 -6 115
-10 265 -10 232 0 246 1 256 19 6 12 10 115 10 265 0 232 -1 246 -19 256 -26
13 -421 14 -421 0 0 -6 81 -11 208 -12 l207 -3 0 -250 0 -250 -87 -3 -88 -3 0
56 c0 30 -4 55 -10 55 -5 0 -10 -25 -10 -55 0 -54 0 -55 -30 -55 l-30 0 0 105
c0 98 -1 105 -20 105 -16 0 -20 7 -20 30 0 23 4 30 20 30 16 0 20 7 20 30 0
42 23 94 51 114 14 9 43 16 71 16 47 0 48 -1 48 -30 0 -29 -2 -30 -43 -30 -53
0 -67 -13 -67 -62 l0 -38 55 0 c54 0 55 0 55 -30 0 -30 -1 -30 -55 -30 l-55 0
0 -35 c0 -19 5 -35 10 -35 6 0 10 11 10 25 0 24 3 25 55 25 l55 0 0 45 0 45
-55 0 -55 0 0 34 c0 38 12 46 71 46 l40 0 -3 43 -3 42 -47 3 c-89 6 -148 -45
-148 -127 0 -37 -2 -41 -25 -41 -23 0 -25 -4 -25 -45 0 -41 2 -45 25 -45 25 0
25 0 25 -95 l0 -96 -117 3 -118 3 0 250 0 250 33 3 c17 2 32 7 32 13 0 15 -57
10 -74 -7z"/>
</g>
</svg>
