<?xml version="1.0" standalone="no"?>
<!DOCTYPE svg PUBLIC "-//W3C//DTD SVG 20010904//EN"
 "http://www.w3.org/TR/2001/REC-SVG-20010904/DTD/svg10.dtd">
<svg version="1.0" xmlns="http://www.w3.org/2000/svg"
 width="55.000000pt" height="55.000000pt" viewBox="0 0 55.000000 55.000000"
 preserveAspectRatio="xMidYMid meet">

<g transform="translate(0.000000,55.000000) scale(0.100000,-0.100000)"
fill="#000000" stroke="none">
<path d="M16 534 c-14 -13 -16 -51 -16 -264 0 -236 1 -250 19 -260 12 -6 115
-10 265 -10 232 0 246 1 256 19 13 26 14 411 0 411 -6 0 -11 -79 -12 -202 l-3
-203 -250 0 -250 0 0 250 0 250 250 0 250 0 3 -30 c6 -49 22 -54 22 -7 0 31
-5 44 -19 52 -12 6 -113 10 -260 10 -204 0 -242 -2 -255 -16z"/>
<path d="M95 446 c-21 -31 -5 -66 28 -66 46 0 66 59 28 80 -29 15 -39 13 -56
-14z m55 -12 c11 -12 10 -18 -3 -32 -16 -15 -18 -15 -33 0 -19 18 -12 48 9 48
8 0 20 -7 27 -16z"/>
<path d="M84 337 c-2 -7 -3 -67 -2 -133 l3 -119 43 -3 42 -3 -2 98 -2 98 -3
-87 -4 -88 -29 0 -30 0 0 115 0 115 29 0 c23 0 31 -5 34 -22 3 -17 5 -14 6 10
1 31 0 32 -39 32 -24 0 -43 -5 -46 -13z"/>
<path d="M217 343 c-4 -3 -7 -64 -7 -135 l0 -128 45 0 45 0 0 69 c0 67 14 101
40 101 26 0 40 -34 40 -101 l0 -70 43 3 42 3 3 91 c3 109 -6 139 -53 161 -29
14 -41 15 -72 5 -24 -7 -39 -8 -41 -2 -4 11 -75 14 -85 3z m73 -34 l0 -20 26
20 c15 12 39 21 54 21 15 0 39 -9 54 -21 25 -19 26 -25 26 -115 l0 -94 -30 0
-30 0 0 68 c0 74 -10 92 -50 92 -40 0 -50 -18 -50 -92 l0 -68 -30 0 -30 0 0
115 0 115 30 0 c24 0 30 -4 30 -21z"/>
</g>
</svg>
